<svg width="4" height="18" viewBox="0 0 4 18" fill="none" xmlns="http://www.w3.org/2000/svg">
<path fill-rule="evenodd" clip-rule="evenodd" d="M3.75 2.5C3.75 3.4665 2.9665 4.25 2 4.25C1.0335 4.25 0.25 3.4665 0.25 2.5C0.25 1.5335 1.0335 0.75 2 0.75C2.9665 0.75 3.75 1.5335 3.75 2.5ZM3.75 9C3.75 9.9665 2.9665 10.75 2 10.75C1.0335 10.75 0.25 9.9665 0.25 9C0.25 8.0335 1.0335 7.25 2 7.25C2.9665 7.25 3.75 8.0335 3.75 9ZM2 17.25C2.9665 17.25 3.75 16.4665 3.75 15.5C3.75 14.5335 2.9665 13.75 2 13.75C1.0335 13.75 0.25 14.5335 0.25 15.5C0.25 16.4665 1.0335 17.25 2 17.25Z" fill="#1B191C"/>
</svg>
